<?xml version="1.0" encoding="utf-8"?>
<!-- Generator: Adobe Illustrator 27.4.0, SVG Export Plug-In . SVG Version: 6.00 Build 0)  -->
<svg version="1.1" id="Layer_1" xmlns="http://www.w3.org/2000/svg" xmlns:xlink="http://www.w3.org/1999/xlink" x="0px" y="0px"
	 viewBox="0 0 768 768" style="enable-background:new 0 0 768 768;" xml:space="preserve">
<style type="text/css">
	.st0{fill:none;stroke:#000000;stroke-width:57;stroke-miterlimit:10;}
	.st1{fill:none;stroke:#000000;stroke-width:41;stroke-miterlimit:10;}
	.st2{fill:none;stroke:#EC1C24;stroke-width:7;stroke-miterlimit:10;}
	.st3{fill:none;stroke:#EC1C4E;stroke-width:7;stroke-miterlimit:10;}
	.st4{fill:none;stroke:#EC1C00;stroke-width:7;stroke-miterlimit:10;}
</style>
<path class="st0" d="M78.47,478.23c11.67,9.38,44.09,33.25,70.75,22.47c12.16-4.92,18.75-15.1,21.43-19.93
	c21.37-38.46,101.14-346.14,101.14-346.14c12.47,37.07,31.51,93.77,54.68,163.32c38.05,114.22,39.1,118.54,46.77,138.96
	c53.82,143.32,80.73,214.98,138.25,237.01c67.47,25.83,147.34-23.27,190.32-55.66"/>
<path class="st1" d="M354.67,384.24c0,0-155.27-115.98-222.61-56.12"/>
<g>
	<g>
		<path class="st2" d="M319.26,356.56l-11.99,7.28l-6.85,13.27l-10.27,16.69v8.56l2.57,8.13l3,10.7l8.99,11.99l43.23,50.94h5.99
			l3-4.28c0,0-11.13-41.52-6.42-49.65c4.71-8.13-35.1-20.55-30.82-80.05s98.87-83.59,98.87-83.59l23.7-1.9l26.22-21.17l18.64-9.16
			l11.06-1.58h5.69l6,3.16l7.9,4.11l10.74,1.58l6.95,1.26l4.74,0.63l6.32-0.63l7.9,3.79l7.9,2.84l7.9,6.63l9.48,7.9l7.58,10.74
			l7.27,13.59l6.63,13.59l2.53,20.22l1.9,18.96l2.53,6.63l-1.26,8.21l-0.63,3.79l1.9,58.77l-4.42,23.06l-6.32,18.29l-8.53,10.78
			l-9.16,7.58l-8.21,7.27l-7.27,5.37l-7.9,3.79l-12.32,2.84h-9.16l-8.21,7.9l-14.22,5.37l-15.17,2.21h-16.75l-16.11-1.9l-4.11-3.16
			l-9.16,0.95l-6.32-2.84l-6.95-6.63l-15.8-13.9l-6.32-9.79l-5.37-9.79l-5.06-16.11l-0.95-5.37l-8.53-5.69l-6.32-6.63l-5.37-8.21
			l-7.27-12.32l-2.84-9.79l0.32-8.85l-5.61-6.95v-9.48v-12.01v-10.11l3.71-7.27l4.42-7.58l6-6l5.06-3.48l4.42-0.32l6.32-1.26
			l3.79,0.95l2.84-0.32l2.53-4.11l-0.32-4.42l2.21-6.95l5.06-4.42l6.32-1.9l8.85-9.48l5.69-6l9.79-4.74l6-3.16l6.63-5.37l10.11-3.48
			l8.21-1.26l4.11,1.58l6,4.74l6,4.42l5.37,5.06l0.63,3.79l-1.58,4.42h4.74l5.06-4.74l5.37-2.84l6.95,1.26l9.16,3.79l10.11,7.58
			l10.74,12.32l6.63,11.06l2.53,6.32l-0.95,7.9l-0.63,6.95l3.16-0.32c3.18,0.65,6.37,1.29,9.55,1.94c0.63,1.78,1.26,3.56,1.89,5.34
			c0.73,1.26,1.47,2.51,2.2,3.77c0.84,2.09,1.68,4.19,2.51,6.28c-0.1,3.04-0.21,6.07-0.31,9.11c-2.75,0.77-5.5,1.54-8.25,2.31
			l-0.63,2.84l0.95,4.42c2.54,1.52,5.08,3.04,7.62,4.56c-0.21,1.99-0.42,3.98-0.63,5.97c-1.15,2.41-2.3,4.82-3.46,7.23
			c-1.78,0.63-3.56,1.26-5.34,1.89c-1.94,2.98-3.88,5.97-5.83,8.95c-2.98,1.48-5.96,2.95-8.94,4.43c0.27,1.52,0.7,5.14-0.94,9.25
			c-1.82,4.57-5.1,7-6.37,7.84c-2.07-1.77-4.14-3.55-6.2-5.32c-1.49-0.91-2.97-1.82-4.46-2.73c-2.32,1.93-4.63,3.86-6.94,5.79
			c-2.69,1.14-5.39,2.28-8.08,3.42c-0.31,2.28-0.62,4.56-0.93,6.84c-1.28,1.07-2.56,2.13-3.85,3.2l5.06,5.69l4.42,3.48h5.06"/>
		<polyline class="st2" points="362.14,291.14 362.14,287.44 363.7,284.83 364.42,282.31 364.42,279.78 367.12,275.73 
			369.46,271.67 375.84,261.88 377.66,258.7 385.86,250.27 389.95,247.77 393.6,243.22 397.24,238.89 403.61,234.56 409.31,229.56 
			413.18,225.23 417.27,220.68 420.46,218.4 423.42,218.4 427.97,220.68 436.85,223.64 444.37,224.55 451.42,227.28 464.4,232.74 
			471.69,236.84 476.88,239.06 		"/>
		<polyline class="st2" points="582.58,268.11 591.41,268.11 598.66,268.5 602.76,269.76 607.56,272.03 612.98,274.3 614.94,277.01 
			627.67,285.65 632.79,292.67 639.08,299.55 645.52,304.67 650.35,307.45 651.81,311.4 659.28,322.09 662.5,327.94 664.99,330.57 
			666.6,336.14 668.64,342.57 671.28,349.16 673.33,354.14 674.21,358.67 673.62,362.18 675.23,365.11 676.69,367.89 676.69,372.87 
			676.69,379.31 675.38,389.7 673.18,395.87 671.13,405.36 669.08,409.6 668.06,416.33 664.69,423.65 660.3,430.38 658.55,433.16 
			655.62,436.67 650.79,441.06 644.79,448.09 640.55,453.21 635.28,457.45 632.2,459.87 629.63,463.01 621.23,468.72 616.99,470.92 
			614.79,473.4 610.25,474.57 609.67,479.26 608.13,482.92 606.89,485.55 606.16,488.18 605.57,492.87 603.23,496.82 603.52,499.6 
			601.03,502.53 597.23,508.09 594.59,511.6 591.81,512.99 588.59,515.55 585.96,518.62 582.58,520.97 582.58,524.62 579.96,526.67 
			576.74,528.87 571.62,528.87 568.98,531.06 568.11,534.43 566.35,537.5 562.69,540.28 559.03,543.65 556.55,546.58 555.23,548.48 
			553.62,551.11 550.4,551.99 545.13,553.45 542.06,555.65 537.23,557.55 531.23,558.87 516.45,559.89 503.57,557.55 496.69,555.94 
			492.74,555.36 489.08,556.53 486.16,556.09 483.52,554.62 480.15,553.89 475.62,554.62 469.91,556.53 461.28,560.62 
			453.37,562.82 447.67,565.75 444.15,566.48 441.08,566.48 436.98,563.26 433.91,563.4 431.13,561.5 429.08,559.01 425.86,554.77 
			419.57,551.55 419.57,549.36 415.76,545.11 407.57,537.06 398.35,528.72 393.81,526.38 388.54,524.48 384.89,518.48 379.33,511.6 
			372.89,507.94 367.32,505.01 363.67,500.77 360.89,495.36 358.4,488.62 358.4,482.92 357.02,479.43 		"/>
		<polyline class="st3" points="368.72,376.5 366.22,380.07 361.21,393.3 358.77,400.81 357.46,405.82 357.46,416.61 358.89,425.19 
			361.26,430.18 361.14,436.05 361.73,443.21 364.19,445.44 368.72,452.6 376.28,465.16 381.09,469.85 387.67,473.49 392.36,478.07 
			396.23,482.65 403.39,487.81 414.43,494.74 427.69,498.73 434.97,499.9 437.83,499.4 		"/>
		<polyline class="st3" points="420.71,496.63 421.58,500.37 424.63,503.77 427.56,507.06 430.49,512.99 434.13,516.91 
			437.83,522.19 443.63,528.4 447.97,531.69 452.31,536.03 457.71,540.01 463.92,545.41 471.43,547.76 474.6,551.51 479.22,554.04 
					"/>
		<polyline class="st3" points="350.51,430.19 354.72,432.57 359.18,436.45 361.28,437.76 		"/>
		<polyline class="st3" points="556.55,546.58 561.69,547.15 568.44,546.58 574.78,544.59 578.56,544.59 585.3,541.35 
			589.89,540.68 600.95,538.79 607.56,537.03 619.57,531.77 624.16,528.26 626.32,525.03 634.28,516.39 642.91,510.59 
			644.26,505.33 645.74,500.34 649.12,496.56 652.76,492.11 654.78,488.6 658.29,476.32 659.51,468.63 659.51,462.83 659.51,457.3 
			660.72,452.44 662.88,447.32 662.88,442.46 661.8,432.88 660.3,430.38 		"/>
		<polyline class="st3" points="610.25,474.57 610.82,472 612.77,469.66 613.55,466.32 614.63,457.37 615.1,453.95 615.1,449.2 
			615.8,443.91 616.42,442.74 616.42,437.38 618.06,434.42 614.16,424.54 614.63,419.41 614.63,415.13 612.38,412.87 610.25,411.31 
			608.13,408.67 		"/>
		<polyline class="st3" points="382.86,333.53 383.53,329.45 385.16,325.64 385.62,322.46 385.62,319.83 386.53,317.56 
			387.62,312.57 390.97,306.12 395.69,299.95 402.5,291.87 408.77,285.06 410.31,283.52 410.95,281.34 412.94,280.52 416.94,279.07 
			422.29,276.71 428.1,274.9 432.28,274.17 437.91,273.53 441.26,271.99 451.16,271.99 455.79,270.54 461.05,269.54 474.13,269.09 
			476.88,268.72 478.57,268.72 482.28,269.81 486.11,269.54 490.01,269.99 495.73,271.17 499,271.17 502.18,271.63 504.81,271.9 
			510.26,273.53 512.71,275.26 514.34,278.07 516.07,278.44 519.52,279.16 521.69,279.89 523.33,281.52 524.33,283.34 
			518.88,283.61 512.53,284.15 506.44,285.24 499.73,286.88 497.64,287.7 496.71,288.53 		"/>
		<polyline class="st3" points="524.33,283.34 528.87,284.15 534.4,285.7 538.49,287.42 541.3,288.78 542.94,290.6 544.03,292.51 
			544.03,294.14 545.21,295.05 546.84,295.05 547.75,293.78 549.29,293.96 551.02,295.68 551.02,297.41 551.02,299.04 
			551.74,300.13 552.47,301.13 554.19,301.13 554.19,299.68 555.28,299.13 556.19,299.41 556.64,301.13 557.82,300.31 
			558.73,299.95 560.09,301.13 561.36,302.13 563.63,301.13 565.36,300.13 567.45,300.68 570.17,302.86 574.89,307.21 
			581.34,311.66 585.24,314.02 587.42,315.93 588.14,318.29 589.23,319.92 594.23,323.55 595.68,325.82 595.68,328.45 597.86,330 
			600.13,331.27 601.03,332.72 601.03,334.99 601.94,337.62 603.76,339.89 605.6,341.11 		"/>
		<path class="st3" d="M606.86,355.96l-1.57,2.52l-1.54,1.42l-1.77,1.23l-0.41,1.7l1.69-0.33l0.96,1.03v2.8l-1.36,1.09l0.73,1.81
			l-1.6,1.17l0.72,1.97l-1.15,4.46l-1.25,3.24l-2.2,2.27l-2.63,3.22l-2.38,3.24l-0.78,2.9v5.14l0.69,3.11l0.31,5.32l-0.14,3.4
			l-2.05,7.39l-4.4,7.92l-4.87,4.24l-3.91,4.58l-4.79,3.42l-6.3,5.4l-6.35,4.04l3.14-5.98l3.21,0.14l2.6-3.8l1.17-7l-1.19-4.83
			l-2.21-6.92l-2.42-5.1l-4.75-0.46l-5.23,1.97l-3.71,2.45l-3.58,10.31l-1.7,3.08c-0.28,0.15-0.57,0.29-0.85,0.44l-1.18-1.33
			l-2.99-0.87l-4.53-0.91l-3.14-1.69"/>
		<polyline class="st3" points="560.49,445.66 557.73,449.71 552.97,455.76 550.42,460.58 548.23,465.73 544.87,472.1 
			540.93,477.55 538.65,480.49 534.26,482.56 532.31,484.01 531.37,485.92 532.86,486.35 535.24,486.35 537.25,487.42 538.7,489.28 
			539.14,491.7 537.99,493.79 536.08,495.9 534.83,497.51 		"/>
		<line class="st3" x1="543.81" y1="433.24" x2="541.07" y2="435.89"/>
		<polyline class="st3" points="527.88,453.59 530.37,454 532.11,455.02 531.37,459.07 528.71,462.81 525.32,468.38 518.36,472.86 
			506.77,479.52 500.68,481.86 496.62,481.86 492.57,484.22 487.66,484.22 482.28,482.31 478,482.32 474.83,482.13 467.23,480.96 
			461.57,478.12 456.62,475.58 452.35,475.3 447.39,474.08 442.94,472.14 437.12,471.83 430.9,471.27 429.3,469.36 428.2,467.3 
			425.55,464.62 421.19,464.11 419.28,463.28 420.04,460.92 418.12,459.87 415.3,459.87 412.94,456.65 412.94,454.13 415.29,451.35 
			415.15,449.24 412.27,446.89 409.95,444.59 410.45,440.23 412.64,433.04 416.65,426.22 422.35,418.27 426.74,413.6 429.57,410.33 
			432.66,405.43 434.07,402.03 435.08,399.37 435.14,395.87 438.62,391.87 446.82,381.59 454.34,374.01 456.02,372.87 
			458.33,367.65 460.71,363.24 463.96,360.22 469.52,354.78 473.23,351.48 477.3,349.09 479.09,349.09 479.06,346.71 480.87,346.22 
			482.28,344.58 484.32,342.12 485.11,341.11 486.35,340.32 488.75,340.32 490.34,339.95 492.44,338.19 495.2,335.89 497.09,335.89 
			500.69,335.89 503.72,336.53 506.6,337.39 510.13,339.12 512.67,340.69 515.4,343.08 518.26,346.36 520.46,348.7 521.89,351.38 
			522.14,353.08 519.59,355.33 517.19,358.2 514.79,358.78 516.86,359.91 521.11,360.83 525.12,360.99 527.43,362.14 530.33,363.34 
			531.27,365.57 532.5,366.82 533,368.74 532.61,372.87 533,375.77 533.35,380.44 532.7,383.2 532.13,384.29 533.35,385.51 
			533.35,387.4 533.35,390.77 530.31,394.78 527.29,397.73 525.49,399.85 523.73,401.57 519.48,404.8 518.09,406.89 519.22,409.2 
			520.9,411.3 523.04,412.9 525.76,411 528.44,408.83 529.25,405.75 530.21,402.55 531.28,400.37 533.93,398.53 537.39,397.3 
			541.08,395.87 544.76,392.94 547.63,388.64 551.37,384.28 555.55,379.57 556.73,376.25 556.73,372.56 555.02,369.19 
			553.12,366.47 549.27,364.51 546.67,361.4 545.72,359.23 545.29,356.65 545.92,354.15 548.02,351.6 548.26,348.94 546.97,346.2 
			545.77,343.88 545.71,341.6 546.53,337.72 546.78,334.18 546.17,331.25 545.88,328.54 544.23,326.11 540.46,323.29 537.84,322.58 
			535.16,320.33 532.04,318.5 527.75,316.98 525,316.98 520.38,316.98 517.61,317.94 514.29,318.31 510.86,318.4 508.66,316.98 
			506.74,314.27 503.5,311.57 501.51,309.84 498.85,307.33 495.3,305.86 490.06,305.19 486.27,304.85 481.8,305.38 479.22,304.85 
			475.69,305.43 472.64,305.76 470.61,306.78 467.78,307.67 464.73,308.73 460.65,308.7 457.77,310.12 453.89,312.98 451.1,315.62 
			449.14,316.97 446.09,319.92 443.06,323 441.78,325.3 439.65,328.06 437.86,330.85 437.79,332.38 436.02,333.53 434.17,335.27 
			432.06,337.83 430.67,339.92 429.35,341.14 427.82,342.48 426.15,343.94 424.59,346.34 423.61,347.59 423.72,349.35 424.22,350.4 
			426.23,350.51 428.66,351.07 431.02,353.9 428,351.68 425.65,351 421.82,350.99 419.6,351.86 418.35,353.82 415.56,357.26 
			412.99,360.45 410.99,364.09 409.52,367.64 409.52,370.84 409.52,373.93 410.06,378.02 410.25,381.86 410.53,388.45 
			410.35,391.12 410.14,394.99 410.26,398.82 410.8,403.29 412.3,405.91 414.19,408.76 414.47,410.8 414.39,413.21 415.8,413.94 
			416.19,416.25 416.7,418.78 417.9,419.63 418.43,421.15 418.86,422.4 		"/>
		<polyline class="st3" points="412.99,360.45 411.17,357.63 410.35,348.71 410.35,341.11 411.67,336.87 411.67,329.11 
			414.11,321.38 417.45,314.84 420.31,309.49 421.09,307.31 		"/>
		<polyline class="st3" points="556.63,347.43 554.78,348.15 552.91,347.79 553.87,344.83 554.77,341.68 553.97,340.54 
			553.31,339.12 551.56,333.53 549.84,331.23 548.37,328.11 545.97,324.54 542.1,322.07 539.42,319.46 536.02,317.67 533.42,316.05 
			529.32,314.9 524.33,313.77 519.37,313.77 515.39,312.71 510.69,312.71 505.62,313.33 		"/>
		<polyline class="st3" points="457.68,403.74 455.97,399.19 454.52,394 453.07,387.98 453.07,383.17 454.37,377.51 455.38,374.39 
			452.5,377.33 449.14,381.35 447,385.78 443,393.05 440.29,398.12 438.62,402.91 437.83,405.74 437.06,412.28 437.06,418.88 
			437.83,421.95 438.69,423.8 439.05,426.52 440.07,429.81 441.41,435.59 442.41,439.41 444.82,441.72 448.4,442.83 451.23,445.42 
			465.53,456.12 470.26,460.29 474.07,462.4 477.3,464.33 482.28,464.92 488.84,464.92 502.69,465.88 510.16,464.83 517.42,461.93 
			520.95,458.67 525.86,453.59 		"/>
		<polyline class="st3" points="468.7,381.73 471.23,381.6 475.41,379.88 479.37,378.03 484.22,376.98 489.55,375.69 494.37,375.52 
			497.56,375.54 500.42,377.07 502.94,379.57 503.44,381.9 504.67,383.25 504.66,385.72 505.81,388.69 505.32,392.03 506.19,394.6 
			505.68,398.24 503.96,402.01 		"/>
		<polyline class="st3" points="465.78,395.04 463.94,394.53 461.92,396.62 459.67,399.03 459.03,400.2 		"/>
		<polyline class="st3" points="518.95,405.6 516.45,406.14 513.91,406.62 511.95,409.01 508.4,411.3 504.98,412.93 502.41,413.6 
			499.54,414.17 496.83,415.17 493.52,415.72 487.65,415.72 484.65,415.38 479.68,414.09 474.42,411.99 472.04,409.96 
			469.39,407.03 467.98,406.23 466.66,404.53 466.15,400.58 467.13,397.73 		"/>
		<polyline class="st3" points="514.82,403.87 516.09,401.73 516.5,398.57 514.82,394.03 511.86,389.27 510.14,386.92 
			508.05,382.92 507.52,379.88 505.83,376.28 503.19,375.1 502.28,373.28 500.16,370.52 499.03,368.08 499.83,363.51 501.56,361.21 
			504.43,360.87 506.46,360.87 509.98,363.27 512.1,364.83 514.11,369.04 514.7,371.93 515.89,375.1 518.4,380.32 520.9,384.55 		
			"/>
	</g>
	<g>
		<polyline class="st4" points="522.81,554.32 525.56,577.14 536.57,593.44 549.41,601.59 570.5,614.64 592.51,627.68 597.1,640.72 
			597.1,650.5 604.44,637.46 613.61,616.27 616.36,599.15 612.69,584.48 612.69,571.44 609.02,557.58 605.07,540.98 		"/>
		<polyline class="st4" points="559.5,546.17 567.75,554.32 576.92,565.73 586.09,577.14 591.6,591 598.02,608.93 599.85,628.49 
			597.1,640.72 		"/>
	</g>
	<g>
		<polyline class="st4" points="608.18,558.59 625.24,561.4 642.75,563.9 651.67,572.21 656.65,579.6 653.63,567.31 647.35,548.26 
			639.98,534.42 630.69,524.57 		"/>
		<path class="st4" d="M617.58,529.25c2.01,2.43,4.02,4.85,6.03,7.28l12.31,11.39l10.88,14.15l4.87,10.14"/>
	</g>
</g>
</svg>
