<?xml version="1.0" encoding="utf-8"?>
<!-- Generator: Adobe Illustrator 27.4.1, SVG Export Plug-In . SVG Version: 6.00 Build 0)  -->
<svg version="1.1" id="Layer_1" xmlns="http://www.w3.org/2000/svg" xmlns:xlink="http://www.w3.org/1999/xlink" x="0px" y="0px"
	 viewBox="0 0 100 100" style="enable-background:new 0 0 100 100;" xml:space="preserve">
<style type="text/css">
	.st0{fill:none;stroke:#DAC000;stroke-width:5;stroke-miterlimit:10;}
</style>
<g>
	<path class="st0" d="M88.6,4.9H13c-0.9,0-2.2,0.2-3.6,0.9C5.6,7.8,5,12.4,5,12.9v75.6c0.1,0.7,0.3,1.7,0.9,2.7
		c0.3,0.5,0.6,1,0.9,1.3c0.5,0.6,1.4,1.5,2.7,2.2c1.4,0.8,2.7,1.2,3.6,1.3l75.1-0.4h1.3c0.5-0.1,1.3-0.3,2.1-0.7
		c0.4-0.2,1.1-0.6,1.8-1.2c0.4-0.4,1.3-1.2,1.9-2.6c0.6-1.5,0.5-2.9,0.4-3.6c0.1-41.8,0.1-72.3,0-75.1c0-0.9-0.1-2.8-1.3-4.5
		c-0.5-0.7-1-1.1-1.3-1.3C91.5,5.4,89.7,5,88.6,4.9z"/>
	<path class="st0" d="M26,14.7c-3.4-0.1-5.7,1.7-6.3,2.2c-3.8,3.1-3.6,7.9-3.6,8.5c0,0.7,0.2,2.6,1.3,4.5c2.6,4.2,7.7,4.5,8,4.5
		c2.1,0.1,3.7-0.5,4.5-0.9c2.6-1.2,4-3.2,4.5-4c0.4-0.9,0.9-2.5,0.9-4.5c0-1.3-0.2-2.3-0.4-3.1c-0.3-0.9-0.8-2.1-1.8-3.4
		C32.6,17.9,30.2,14.8,26,14.7z"/>
	<path class="st0" d="M31.4,38.4c-3.9,0-7.7,0-11.6,0c-0.4,0.4-0.9,0.9-1.3,1.3c0,15.2,0,30.4,0,45.6l0.4,0.4c4.3,0,8.6,0,13,0
		c0.4,0,0.9,0,1.3,0c0-0.6,0-1.2,0-1.8c0-14.8,0-29.5,0-44.3c-0.2-0.2-0.5-0.6-0.9-0.9C31.9,38.6,31.6,38.5,31.4,38.4z"/>
	<path class="st0" d="M53.3,38.4c-4,0-8,0-12.1,0c-0.4,0.4-0.9,0.9-1.3,1.3c0,14.9,0,29.8,0,44.7c0.4,0.4,0.9,0.9,1.3,1.3
		c4,0,8,0,12.1,0c0.6-0.4,1.2-0.9,1.8-1.3c0-8.3,0-16.7,0-25c0.1-0.7,0.2-1.4,0.4-2.2c0.3-1,0.6-1.9,0.9-2.7c0.3-0.6,1-1.7,2.2-2.7
		c1-0.8,2-1.2,2.7-1.3c0.6-0.2,2-0.4,3.6,0c1.6,0.4,2.7,1.3,3.1,1.8c0.4,0.3,0.9,0.8,1.3,1.3c1.5,1.9,1.7,3.9,1.8,4.9v2.7v23.2
		c0.4,0.4,0.9,0.9,1.3,1.3c4.2,0,8.3,0,12.5,0c0.4-0.4,0.9-0.9,1.3-1.3c0-9.5,0-19.1,0-28.6c-0.2-3.1-0.8-5.5-1.3-7.2
		c-0.7-2.2-1.6-3.6-1.8-4c-0.8-1.3-1.6-2.4-2.2-3.1c-1.1-0.7-2.4-1.5-4-2.2c-1.5-0.6-2.9-1.1-4-1.3c-1.4-0.3-3.2-0.6-5.4-0.4
		c-2.7,0.1-4.8,0.8-6.3,1.3c-0.8,0.3-2.1,0.8-3.4,1.8c-1.2,1-2,2-2.5,2.7L55,44.2c0-1.5,0-3,0-4.5c-0.4-0.4-0.9-0.9-1.3-1.3H53.3z"
		/>
</g>
</svg>
