<?xml version="1.0" encoding="utf-8"?>
<!-- Generator: Adobe Illustrator 27.4.1, SVG Export Plug-In . SVG Version: 6.00 Build 0)  -->
<svg version="1.1" id="Layer_1" xmlns="http://www.w3.org/2000/svg" xmlns:xlink="http://www.w3.org/1999/xlink" x="0px" y="0px"
	 viewBox="0 0 100 100" style="enable-background:new 0 0 100 100;" xml:space="preserve">
<style type="text/css">
	.st0{fill:none;stroke:#000000;stroke-width:5;stroke-miterlimit:10;}
</style>
<g>
	<path class="st0" d="M47.3,44.8l35.9-29.7c3.6,4.6,7.2,9.1,10.9,13.7c-11.2,9.9-22.5,19.8-33.7,29.7h-13L47.3,44.8L47.3,44.8z"/>
	<line class="st0" x1="15.8" y1="25.4" x2="65.8" y2="25.4"/>
	<line class="st0" x1="15.8" y1="43.6" x2="49.1" y2="43.7"/>
	<line class="st0" x1="13.6" y1="59.6" x2="41.9" y2="59.6"/>
	<path class="st0" d="M71.1,24.5c0-5,0.1-10,0.1-15.1c-20.6,0-41.3,0-61.9,0c0,25.9,0,51.7,0,77.6c20.6,0,41.3,0,61.9,0
		c0-12.9,0-25.9,0-38.8"/>
</g>
</svg>
