<?xml version="1.0" encoding="UTF-8"?><svg id="Layer_1" xmlns="http://www.w3.org/2000/svg" viewBox="0 0 873.1 950.9"><defs><style>.cls-1{fill:none;}.cls-2{fill:#f4f4f5;}.cls-3,.cls-4{fill:#fff;}.cls-5{fill:#cec9ae;}.cls-6{fill:#a5cdc8;}.cls-7{fill:#c7e8e4;}.cls-8{fill:#dce7e5;}.cls-9{fill:#99d4bd;}.cls-10{fill:#4da083;}.cls-4{stroke:#4da083;stroke-width:4px;}.cls-4,.cls-11{stroke-miterlimit:10;}.cls-11{fill:#ccc9ae;stroke:#231f20;}.cls-12{fill:#3f7f66;font-size:47.5px;}.cls-12,.cls-13{font-family:Superclarendon-Regular, Superclarendon;}.cls-13{fill:#407a64;font-size:71.3px;}</style></defs><g id="Layer_2"><rect class="cls-11" x="81.7" y="28.4" width="790.9" height="790.9"/></g><circle class="cls-4" cx="481.1" cy="415.7" r="315"/><circle class="cls-7" cx="483" cy="422.8" r="216.2"/><path class="cls-5" d="m560.1,478.9c7.5,5,15.1,10.1,22.6,15.1-12.8,22.5-25.6,45.1-38.4,67.6-40.5,19.9-81,39.9-121.4,59.8-21.1-18.9-42.3-37.8-63.4-56.8-5.8-31.2-11.7-62.5-17.5-93.7,5-9.5,9.9-19,14.9-28.5l203.2,36.5Z"/><path class="cls-2" d="m396.2,530l13.7,12.1,17.9,3.9,22.3.3,45.2-12.2-10.3,11.1-9.1,11.3-9.9,11.6c-4.7,3.2-19.4,12.2-39.7,10.8-15-1-25.9-7.2-30.9-10.5-1-7.3-2-14.5-3-21.8l-4.3-13.7-7.1-11.9,15.1,8.8Z"/><circle class="cls-1" cx="483" cy="422.8" r="216.2"/><polygon class="cls-3" points="576.9 391.7 612.8 362.6 665.6 324.3 709.9 300.2 729.4 294 743.5 289.5 769.4 292.3 782.2 299.1 782.7 303.8 780.6 309 781.7 313.2 773.6 320.6 772.7 327.9 761.4 334 759.7 343.8 749.3 350 748.8 358.8 738.8 366.5 736.4 377.7 724.1 385.1 727.3 392.8 719.4 397 714.7 399.8 713.1 408.4 701.2 411.9 690.2 421.4 651.5 420.9 670.7 434.1 687.4 448.7 692.4 457.3 691.5 460.5 687.7 460.1 687.5 467.9 689.6 473.8 688.1 476.5 679.2 475.6 678.2 487.5 667.9 488.4 666.6 500.6 654.8 499.3 653.2 510.8 641.5 506.5 638.9 509.3 638 515.6 631.2 514.9 628 511.4 622.8 510.2 621.5 513.9 617.5 513.4 612.6 508.2 604.9 507.8 599.3 504.6 589 484.6 573 428.8 576.9 391.7"/><path class="cls-10" d="m241.9,363.3c19.3,24.7,38.6,49.4,57.9,74,35.2,24.9,70.5,49.9,105.7,74.8,34.5,5.2,68.9,10.4,103.4,15.7,22.3-5.6,44.5-11.3,66.8-16.9,25.6-10.4,51.2-20.8,76.8-31.2,9.7-6.9,19.3-13.7,29-20.6-34.7-21.8-69.3-43.5-104-65.3-5.1-35.8-10.3-71.5-15.4-107.3-4.8-15.9-9.5-31.9-14.3-47.8-5.3-10.5-10.7-21-16-31.5-6.6-5.9-13.3-11.8-19.9-17.7-17.1-12.5-34.2-24.9-51.3-37.4,4.2,12.5,8.5,25,12.7,37.5-6.3,25.6-12.6,51.2-18.9,76.8-23.6,29.9-47.2,59.7-70.8,89.6-47.3,2.4-94.5,4.8-141.8,7.2Z"/><polygon class="cls-9" points="577.5 393.8 572.6 349.3 562.1 286.5 547.8 238.7 538.5 220.4 531.8 207.2 511.9 189.5 498.3 184.1 494.8 186.6 492.6 191.4 489 193.1 489.5 203.7 485.2 208.8 488.8 221 483.3 228.2 486.3 239.8 480.6 245.5 482.2 257.7 476.3 266.3 479.7 280 472.2 282.3 474.8 290.7 476.2 296 471.4 302.4 477.3 313.4 478.4 327.5 505.6 356 483.3 349.7 461.7 346.2 452.3 347.7 450.8 350.4 453.7 353 448.5 357.9 442.9 359.9 442.2 362.7 448.9 368.7 441.5 376.8 448.1 385 440.6 393.4 449.6 401.4 442.9 409.6 454 415.7 453.9 419.4 450.2 423.9 455.4 428.5 460 428.9 464.5 432 462.8 435.1 465.9 437.9 472.9 438.4 478.5 443.9 484.6 446.1 505.4 441.5 554.8 419.4 577.5 393.8"/><path class="cls-3" d="m502.3,559c-9.3-1.4-18.5-2.9-27.8-4.3-1,9.1-1.9,18.3-2.9,27.4-1.3-8.9-2.6-17.9-3.9-26.8-9.2,1.6-18.4,3.2-27.6,4.8,8.8-3.6,17.7-7.1,26.5-10.7-5.1-8.7-10.2-17.4-15.3-26.1,7.1,7.3,14.1,14.6,21.2,21.9,5.7-7.5,11.5-15.1,17.2-22.6-4,8.5-8.1,17-12.1,25.6,8.2,3.6,16.5,7.2,24.7,10.7Z"/><polygon class="cls-6" points="577.5 393.8 681.5 459.1 652.5 479.7 597.9 501.9 589 484.6 573 428.8 577.5 393.8"/><path class="cls-8" d="m673.2,320.2c3.1,6.5,6.1,12.9,9.2,19.4l5.5,13.9,4.4,15.1,5.3,27.1c.6,6.1,1.2,12.3,1.8,18.4,1.1-1,2.2-1.9,3.3-2.9,0,0,.7-.2.7-.2,3.1-1,7.2-2.4,10.3-3.5.5-2.8,1-5.6,1.5-8.4l12.6-6.7-3.3-7.5,12.2-7.2,2.4-10.8,9.9-7.5.4-8.6,10.4-5.9,1.6-9.5,11.3-6,.9-7.1,8-7.2-1.1-4,2-5.1-.5-4.6-12.9-6.7-26-2.8-33.5,10.2c-6.6,3.1-13.1,6.3-19.7,9.4-5.7,3-11.4,5.9-17,8.9Z"/><text class="cls-13" transform="translate(255.7 330.9) rotate(-58.3) scale(.9 1)"><tspan x="0" y="0">W</tspan></text><text class="cls-13" transform="translate(297 266) rotate(-42.7) scale(.9 1)"><tspan x="0" y="0">H</tspan></text><text class="cls-13" transform="translate(339.8 228.3) rotate(-33.6) scale(.9 1)"><tspan x="0" y="0">I</tspan></text><text class="cls-13" transform="translate(361.3 212.7) rotate(-23.9) scale(.9 1)"><tspan x="0" y="0">T</tspan></text><text class="cls-13" transform="translate(408.7 191.6) rotate(-12.2) scale(.9 1)"><tspan x="0" y="0">E</tspan></text><text class="cls-13" transform="translate(456.9 182.1) rotate(-4) scale(.9 1)"><tspan x="0" y="0"> </tspan></text><text class="cls-13" transform="translate(478.5 180.6) rotate(1) scale(.9 1)"><tspan x="0" y="0"> </tspan></text><text class="cls-13" transform="translate(499.4 177.9) rotate(12.3) scale(.9 1)"><tspan x="0" y="0">W</tspan></text><text class="cls-13" transform="translate(574.5 196.8) rotate(24) scale(.9 1)"><tspan x="0" y="0">I</tspan></text><text class="cls-13" transform="translate(599.1 206.5) rotate(33) scale(.9 1)"><tspan x="0" y="0">T</tspan></text><text class="cls-13" transform="translate(642.8 234.7) rotate(44.6) scale(.9 1)"><tspan x="0" y="0">C</tspan></text><text class="cls-13" transform="translate(678.6 269.2) rotate(56.4) scale(.9 1)"><tspan x="0" y="0">H</tspan></text><text class="cls-12" transform="translate(237.9 571.1) rotate(51.5) scale(.9 1)"><tspan x="0" y="0">T</tspan></text><text class="cls-12" transform="translate(260 598.5) rotate(46.2) scale(.9 1)"><tspan x="0" y="0">e</tspan></text><text class="cls-12" transform="translate(279 618.2) rotate(41.3) scale(.9 1)"><tspan x="0" y="0">e</tspan></text><text class="cls-12" transform="translate(299.1 635.7) rotate(38.2) scale(.9 1)"><tspan x="0" y="0">t</tspan></text><text class="cls-12" transform="translate(314.9 648.5) rotate(32.6) scale(.9 1)"><tspan x="0" y="0">h</tspan></text><text class="cls-12" transform="translate(343.9 666.4) rotate(26.9) scale(.9 1)"><tspan x="0" y="0"> </tspan></text><text class="cls-12" transform="translate(359.1 675.3) rotate(18.8) scale(.9 1)"><tspan x="0" y="0">W</tspan></text><text class="cls-12" transform="translate(411.3 691.9) rotate(8.7) scale(.9 1)"><tspan x="0" y="0">h</tspan></text><text class="cls-12" transform="translate(445.1 696.5) rotate(2.9) scale(.9 1)"><tspan x="0" y="0">i</tspan></text><text class="cls-12" transform="translate(462.8 697.4) rotate(-1) scale(.9 1)"><tspan x="0" y="0">t</tspan></text><text class="cls-12" transform="translate(482.5 697.1) rotate(-5) scale(.9 1)"><tspan x="0" y="0">e</tspan></text><text class="cls-12" transform="translate(510.2 694.7) rotate(-11) scale(.9 1)"><tspan x="0" y="0">n</tspan></text><text class="cls-12" transform="translate(543.7 687.8) rotate(-15.9) scale(.9 1)"><tspan x="0" y="0">i</tspan></text><text class="cls-12" transform="translate(561.2 683.1) rotate(-20.6) scale(.9 1)"><tspan x="0" y="0">n</tspan></text><text class="cls-12" transform="translate(592.8 671.1) rotate(-26.7) scale(.9 1)"><tspan x="0" y="0">g</tspan></text><text class="cls-12" transform="translate(622.3 655.9) rotate(-30.4) scale(.9 1)"><tspan x="0" y="0"> </tspan></text><text class="cls-12" transform="translate(636.4 648) rotate(-34.9) scale(.9 1)"><tspan x="0" y="0">S</tspan></text><text class="cls-12" transform="translate(662.2 629.5) rotate(-40.1) scale(.9 1)"><tspan x="0" y="0">t</tspan></text><text class="cls-12" transform="translate(677.6 616.7) rotate(-44.9) scale(.9 1)"><tspan x="0" y="0">r</tspan></text><text class="cls-12" transform="translate(696.3 597.7) rotate(-49.6) scale(.9 1)"><tspan x="0" y="0">i</tspan></text><text class="cls-12" transform="translate(708.2 584) rotate(-54.8) scale(.9 1)"><tspan x="0" y="0">p</tspan></text><text class="cls-12" transform="translate(725.9 558.4) rotate(-61) scale(.9 1)"><tspan x="0" y="0">s</tspan></text><text class="cls-12" transform="translate(737.7 536.7) rotate(-65.4) scale(.9 1)"><tspan x="0" y="0"> </tspan></text><text class="cls-12" transform="translate(743.7 523) rotate(-66.5) scale(.9 1)"><tspan x="0" y="0"> </tspan></text><text class="cls-12" transform="translate(743.7 509) rotate(16.6) scale(.9 1)"><tspan x="0" y="0"> </tspan></text><text class="cls-12" transform="translate(751.3 512.7) rotate(91.8) scale(.9 1)"><tspan x="0" y="0"> </tspan></text><text class="cls-12" transform="translate(750.8 526.7) rotate(95.7) scale(.9 1)"><tspan x="0" y="0"> </tspan></text><text class="cls-12" transform="translate(749.3 540.9) rotate(98) scale(.9 1)"><tspan x="0" y="0"> </tspan></text><text class="cls-12" transform="translate(747.4 555) rotate(99.8) scale(.9 1)"><tspan x="0" y="0"> </tspan></text><text class="cls-12" transform="translate(744.9 569.1) rotate(101.4) scale(.9 1)"><tspan x="0" y="0"> </tspan></text><text class="cls-12" transform="translate(742.1 583.1) rotate(103) scale(.9 1)"><tspan x="0" y="0"> </tspan></text><text class="cls-12" transform="translate(738.9 597.1) rotate(104.5) scale(.9 1)"><tspan x="0" y="0"> </tspan></text><text class="cls-12" transform="translate(735.3 610.9) rotate(106.1) scale(.9 1)"><tspan x="0" y="0"> </tspan></text><text class="cls-12" transform="translate(731.4 624.7) rotate(107.7) scale(.9 1)"><tspan x="0" y="0"> </tspan></text><text class="cls-12" transform="translate(727 638.3) rotate(109.4) scale(.9 1)"><tspan x="0" y="0"> </tspan></text><text class="cls-12" transform="translate(722.3 651.8) rotate(111.2) scale(.9 1)"><tspan x="0" y="0"> </tspan></text><text class="cls-12" transform="translate(717.1 665.1) rotate(113.1) scale(.9 1)"><tspan x="0" y="0"> </tspan></text><text class="cls-12" transform="translate(711.5 678.2) rotate(115.1) scale(.9 1)"><tspan x="0" y="0"> </tspan></text><text class="cls-12" transform="translate(705.5 691.1) rotate(117.2) scale(.9 1)"><tspan x="0" y="0"> </tspan></text><text class="cls-12" transform="translate(699 703.7) rotate(119.5) scale(.9 1)"><tspan x="0" y="0"> </tspan></text><text class="cls-12" transform="translate(692.1 716.1) rotate(121.9) scale(.9 1)"><tspan x="0" y="0"> </tspan></text><text class="cls-12" transform="translate(684.6 728.1) rotate(124.5) scale(.9 1)"><tspan x="0" y="0"> </tspan></text><text class="cls-12" transform="translate(676.6 739.8) rotate(127.4) scale(.9 1)"><tspan x="0" y="0"> </tspan></text><text class="cls-12" transform="translate(668 751) rotate(130.4) scale(.9 1)"><tspan x="0" y="0"> </tspan></text><text class="cls-12" transform="translate(658.9 761.7) rotate(133.7) scale(.9 1)"><tspan x="0" y="0"> </tspan></text><text class="cls-12" transform="translate(649.2 771.9) rotate(137.2) scale(.9 1)"><tspan x="0" y="0"> </tspan></text><text class="cls-12" transform="translate(639 781.4) rotate(140.9) scale(.9 1)"><tspan x="0" y="0"> </tspan></text><text class="cls-12" transform="translate(628.1 790.3) rotate(144.8) scale(.9 1)"><tspan x="0" y="0"> </tspan></text><text class="cls-12" transform="translate(616.7 798.3) rotate(148.9) scale(.9 1)"><tspan x="0" y="0"> </tspan></text><text class="cls-12" transform="translate(604.8 805.6) rotate(153) scale(.9 1)"><tspan x="0" y="0"> </tspan></text><text class="cls-12" transform="translate(592.4 811.9) rotate(157.3) scale(.9 1)"><tspan x="0" y="0"> </tspan></text><text class="cls-12" transform="translate(579.6 817.3) rotate(161.5) scale(.9 1)"><tspan x="0" y="0"> </tspan></text><text class="cls-12" transform="translate(566.3 821.8) rotate(165.6) scale(.9 1)"><tspan x="0" y="0"> </tspan></text><text class="cls-12" transform="translate(552.8 825.3) rotate(169.5) scale(.9 1)"><tspan x="0" y="0"> </tspan></text><text class="cls-12" transform="translate(539 827.8) rotate(173.3) scale(.9 1)"><tspan x="0" y="0"> </tspan></text><text class="cls-12" transform="translate(525.1 829.5) rotate(176.8) scale(.9 1)"><tspan x="0" y="0"> </tspan></text><text class="cls-12" transform="translate(511 830.3) rotate(-179.9) scale(.9 1)"><tspan x="0" y="0"> </tspan></text><text class="cls-12" transform="translate(496.9 830.3) rotate(-176.9) scale(.9 1)"><tspan x="0" y="0"> </tspan></text><text class="cls-12" transform="translate(482.8 829.5) rotate(-174.2) scale(.9 1)"><tspan x="0" y="0"> </tspan></text><text class="cls-12" transform="translate(468.7 828.1) rotate(-171.7) scale(.9 1)"><tspan x="0" y="0"> </tspan></text><text class="cls-12" transform="translate(454.6 826) rotate(-169.4) scale(.9 1)"><tspan x="0" y="0"> </tspan></text><text class="cls-12" transform="translate(440.6 823.4) rotate(-167.4) scale(.9 1)"><tspan x="0" y="0"> </tspan></text><text class="cls-12" transform="translate(426.7 820.3) rotate(-165.7) scale(.9 1)"><tspan x="0" y="0"> </tspan></text><text class="cls-12" transform="translate(412.8 816.7) rotate(-164.2) scale(.9 1)"><tspan x="0" y="0"> </tspan></text><text class="cls-12" transform="translate(399 812.8) rotate(-163) scale(.9 1)"><tspan x="0" y="0"> </tspan></text><text class="cls-12" transform="translate(385.2 808.6) rotate(-162.2) scale(.9 1)"><tspan x="0" y="0"> </tspan></text><text class="cls-12" transform="translate(371.4 804.1) rotate(-161.8) scale(.9 1)"><tspan x="0" y="0"> </tspan></text><text class="cls-12" transform="translate(357.7 799.6) rotate(-161.1) scale(.9 1)"><tspan x="0" y="0"> </tspan></text><text class="cls-12" transform="translate(344.1 795) rotate(-159.7) scale(.9 1)"><tspan x="0" y="0"> </tspan></text><text class="cls-12" transform="translate(330.7 790.1) rotate(-158.2) scale(.9 1)"><tspan x="0" y="0"> </tspan></text><text class="cls-12" transform="translate(317.4 784.8) rotate(-156.5) scale(.9 1)"><tspan x="0" y="0"> </tspan></text><text class="cls-12" transform="translate(304.3 779.1) rotate(-154.8) scale(.9 1)"><tspan x="0" y="0"> </tspan></text><text class="cls-12" transform="translate(291.4 773) rotate(-152.9) scale(.9 1)"><tspan x="0" y="0"> </tspan></text><text class="cls-12" transform="translate(278.7 766.5) rotate(-150.9) scale(.9 1)"><tspan x="0" y="0"> </tspan></text><text class="cls-12" transform="translate(266.2 759.6) rotate(-148.7) scale(.9 1)"><tspan x="0" y="0"> </tspan></text><text class="cls-12" transform="translate(254.1 752.2) rotate(-146.5) scale(.9 1)"><tspan x="0" y="0"> </tspan></text><text class="cls-12" transform="translate(242.3 744.4) rotate(-144) scale(.9 1)"><tspan x="0" y="0"> </tspan></text><text class="cls-12" transform="translate(230.8 736.1) rotate(-141.4) scale(.9 1)"><tspan x="0" y="0"> </tspan></text><text class="cls-12" transform="translate(219.7 727.3) rotate(-138.7) scale(.9 1)"><tspan x="0" y="0"> </tspan></text><text class="cls-12" transform="translate(209.1 717.9) rotate(-135.7) scale(.9 1)"><tspan x="0" y="0"> </tspan></text><text class="cls-12" transform="translate(199 708.1) rotate(-132.6) scale(.9 1)"><tspan x="0" y="0"> </tspan></text><text class="cls-12" transform="translate(189.5 697.8) rotate(-129.3) scale(.9 1)"><tspan x="0" y="0"> </tspan></text><text class="cls-12" transform="translate(180.5 686.9) rotate(-125.9) scale(.9 1)"><tspan x="0" y="0"> </tspan></text><text class="cls-12" transform="translate(172.3 675.6) rotate(-122.3) scale(.9 1)"><tspan x="0" y="0"> </tspan></text><text class="cls-12" transform="translate(164.8 663.7) rotate(-118.6) scale(.9 1)"><tspan x="0" y="0"> </tspan></text><text class="cls-12" transform="translate(158.1 651.4) rotate(-114.8) scale(.9 1)"><tspan x="0" y="0"> </tspan></text><text class="cls-12" transform="translate(152.2 638.8) rotate(-111.1) scale(.9 1)"><tspan x="0" y="0"> </tspan></text><text class="cls-12" transform="translate(147.1 625.7) rotate(-107.3) scale(.9 1)"><tspan x="0" y="0"> </tspan></text><text class="cls-12" transform="translate(143 612.3) rotate(-103.5) scale(.9 1)"><tspan x="0" y="0"> </tspan></text><text class="cls-12" transform="translate(139.7 598.7) rotate(-99.7) scale(.9 1)"><tspan x="0" y="0"> </tspan></text><text class="cls-12" transform="translate(137.3 584.9) rotate(-96.1) scale(.9 1)"><tspan x="0" y="0"> </tspan></text><text class="cls-12" transform="translate(135.8 570.9) rotate(-92.9) scale(.9 1)"><tspan x="0" y="0"> </tspan></text><text class="cls-12" transform="translate(135.1 556.7) rotate(-90.2) scale(.9 1)"><tspan x="0" y="0"> </tspan></text><text class="cls-12" transform="translate(135 542.5) rotate(-88.1) scale(.9 1)"><tspan x="0" y="0"> </tspan></text><text class="cls-12" transform="translate(135.5 528.2) rotate(-86.8) scale(.9 1)"><tspan x="0" y="0"> </tspan></text><text class="cls-12" transform="translate(136.3 513.7) rotate(-86.3) scale(.9 1)"><tspan x="0" y="0"> </tspan></text><text class="cls-12" transform="translate(137.2 499.5) rotate(-84.5) scale(.9 1)"><tspan x="0" y="0"> </tspan></text><text class="cls-12" transform="translate(138.6 485.3) rotate(-82.7) scale(.9 1)"><tspan x="0" y="0"> </tspan></text><text class="cls-12" transform="translate(140.4 471.1) rotate(-80.8) scale(.9 1)"><tspan x="0" y="0"> </tspan></text><text class="cls-12" transform="translate(142.7 457) rotate(-79.1) scale(.9 1)"><tspan x="0" y="0"> </tspan></text><text class="cls-12" transform="translate(145.4 443) rotate(-77.3) scale(.9 1)"><tspan x="0" y="0"> </tspan></text><text class="cls-12" transform="translate(148.6 429) rotate(-75.6) scale(.9 1)"><tspan x="0" y="0"> </tspan></text><text class="cls-12" transform="translate(152.1 415.2) rotate(-73.8) scale(.9 1)"><tspan x="0" y="0"> </tspan></text><text class="cls-12" transform="translate(156.1 401.5) rotate(-72.1) scale(.9 1)"><tspan x="0" y="0"> </tspan></text></svg>